<?xml version="1.0" encoding="iso-8859-1"?>
<!-- Uploaded to: SVG Repo, www.svgrepo.com, Generator: SVG Repo Mixer Tools -->
<svg fill="#000000" height="800px" width="800px" version="1.1" id="Capa_1" xmlns="http://www.w3.org/2000/svg" xmlns:xlink="http://www.w3.org/1999/xlink" 
	 viewBox="0 0 486.575 486.575" xml:space="preserve">
<g>
	<g>
		<path d="M460.1,67.725c-35.3-35.3-92.6-35.3-128,0c-34,34-35.3,88.4-3.8,123.9l0.9,0.8c-3.4,7.4-9.3,16.5-18.6,21.1
			c-3.1,1.5-2.4,6.1,1,6.6c10.2,1.6,24.8-0.2,38.5-10.5l0.2,0.2c34.7,20.4,80,15.7,109.8-14.1
			C495.4,160.425,495.4,103.125,460.1,67.725z M399.9,75.825c8.1,0,14.6,6.7,14.6,14.9c-0.1,8.2-6.7,14.8-14.6,14.8
			c-8.2-0.1-14.8-6.8-14.8-15C385.2,82.425,391.8,75.825,399.9,75.825z M420.9,175.325c-0.3,1.3-1.1,2.6-2.1,3.5
			c-5.3,5.4-11.8,8.7-19.5,8.8c-3.6,0-7.2-0.1-10.7-0.6c-5.9-0.8-13.4-8.1-12.3-15.9c0.7-5.3,1.5-10.6,2.4-15.9
			c1.6-9.2,3.2-18.4,4.8-27.6c0.1-0.6,0.1-1.2,0.1-1.8c0-3.9-1.2-5.2-5-5.7c-1.6-0.2-3.3-0.4-4.9-0.9c-1.9-0.7-2.8-2.2-2.6-3.7
			c0.2-1.6,1.2-2.6,3.3-3c1.1-0.2,2.2-0.2,3.4-0.3c4.5,0,9,0,13.6,0c4.8,0,9.6,0,14.4,0c3.4,0,5.5,1.6,5.6,5.1
			c0.1,2.9-0.4,5.8-0.9,8.6c-1.9,10.5-3.8,21-5.8,31.6c-0.6,3.5-1.3,7-1.8,10.5c-0.2,1.7,0,3.5,0.5,5.1c0.6,2.2,2.2,3.4,4.4,3.2
			c1.9-0.2,3.7-0.9,5.5-1.5c1.4-0.5,2.7-1.6,4.2-2.1C419.7,171.625,421.5,173.025,420.9,175.325z"/>
		<path d="M304.4,316.925c-42.8-16.3-68.4-33-68.4-33l-32.9,104.2l-4.5,14.1l-14.7-41.9c33.9-47.3-2.6-49.5-8.9-49.6l0,0h-0.1h-0.1
			h-0.1h-0.1l0,0c-6.3,0-42.8,2.3-8.9,49.6l-14.8,41.8l-4.5-14.1l-32.9-104.2c0,0-25.6,16.7-68.4,33
			c-47.1,17.1-44.2,55.9-45.1,128.5h166h9h174.6C348.6,372.725,351.5,334.025,304.4,316.925z"/>
		<path d="M100.7,217.725c3.8,24.5,22.6,55.6,53.7,66.6c12.7,4.5,26.7,4.5,39.4-0.1c30.6-11,50.1-42,53.8-66.5
			c4.1-0.3,9.5-6.1,15.3-26.7c8-28.2-0.5-32.3-7.7-31.6c1.4-3.9,2.4-7.7,3.1-11.6c12.2-72.9-23.7-75.5-23.7-75.5
			s-5.9-11.4-21.6-20.1c-10.5-6.2-25.1-11.1-44.4-9.4c-6.2,0.3-12.1,1.5-17.7,3.4l0,0c-7.1,2.4-13.6,5.9-19.5,10
			c-7.2,4.6-14,10.2-20,16.6c-9.5,9.7-18,22.3-21.7,38c-3.1,11.7-2.4,23.9,0.2,37.1l0,0c0.7,3.8,1.7,7.7,3.1,11.6
			c-7.2-0.7-15.6,3.5-7.7,31.6C91.2,211.625,96.6,217.425,100.7,217.725z"/>
	</g>
</g>
</svg>