<?xml version="1.0" standalone="no"?>
<!DOCTYPE svg PUBLIC "-//W3C//DTD SVG 20010904//EN"
 "http://www.w3.org/TR/2001/REC-SVG-20010904/DTD/svg10.dtd">
<svg version="1.0" xmlns="http://www.w3.org/2000/svg"
 width="1500.000000pt" height="1500.000000pt" viewBox="0 0 1500.000000 1500.000000"
 preserveAspectRatio="xMidYMid meet">

<g transform="translate(0.000000,1500.000000) scale(0.100000,-0.100000)"
fill="#000000" stroke="none">
<path d="M716 12103 c-3 -3 -6 -18 -6 -33 0 -21 19 -43 93 -106 50 -43 117
-102 147 -130 70 -65 170 -153 261 -229 39 -33 78 -68 87 -78 10 -10 64 -59
122 -109 58 -51 110 -97 115 -103 6 -6 78 -69 160 -139 83 -71 155 -133 160
-140 23 -25 211 -193 227 -202 9 -5 67 -56 130 -114 135 -124 237 -215 332
-296 92 -78 324 -286 406 -362 36 -34 69 -62 74 -62 16 0 35 -34 36 -62 0 -16
-9 -38 -19 -50 -33 -39 -141 -172 -157 -193 -53 -70 -144 -202 -172 -249 -18
-30 -42 -62 -53 -72 -10 -9 -19 -24 -19 -31 0 -8 -14 -36 -32 -61 -59 -88 -65
-97 -86 -142 -12 -25 -39 -72 -60 -106 -22 -34 -44 -76 -50 -93 -6 -18 -20
-45 -32 -60 -11 -16 -20 -36 -20 -44 0 -8 -11 -30 -24 -50 -13 -19 -27 -46
-31 -58 -4 -13 -18 -43 -31 -66 -13 -23 -24 -48 -24 -55 0 -7 -14 -40 -30 -73
-16 -33 -30 -67 -30 -75 0 -8 -12 -33 -25 -55 -14 -22 -25 -49 -25 -59 0 -11
-12 -44 -26 -74 -14 -30 -28 -71 -31 -91 -3 -20 -14 -52 -23 -71 -10 -19 -23
-62 -30 -95 -7 -33 -19 -70 -26 -81 -7 -12 -18 -50 -25 -85 -6 -35 -20 -86
-30 -114 -10 -27 -23 -81 -30 -120 -6 -38 -19 -98 -29 -131 -10 -34 -24 -106
-30 -160 -6 -54 -17 -129 -25 -168 -9 -39 -20 -143 -26 -231 -5 -88 -15 -189
-20 -225 -13 -80 -6 -662 9 -845 20 -237 33 -340 48 -383 8 -23 14 -65 14 -93
0 -27 13 -107 29 -177 16 -70 35 -154 42 -187 7 -33 18 -69 25 -80 6 -11 15
-42 19 -68 3 -27 13 -67 22 -90 8 -23 21 -67 28 -97 12 -48 51 -161 99 -285 8
-22 15 -48 16 -58 0 -11 9 -32 21 -48 11 -16 25 -46 30 -67 5 -20 20 -59 33
-87 74 -156 86 -182 92 -207 3 -16 10 -28 14 -28 4 0 15 -21 25 -47 10 -27 23
-55 30 -63 7 -8 16 -25 20 -38 3 -12 17 -34 29 -50 13 -15 27 -38 31 -52 4
-14 17 -38 30 -55 12 -16 26 -41 30 -55 4 -14 18 -38 31 -53 13 -16 24 -33 24
-39 0 -6 11 -26 25 -44 14 -18 25 -36 25 -41 0 -5 13 -24 29 -43 15 -19 31
-45 35 -56 4 -12 15 -29 26 -39 11 -10 20 -22 20 -26 0 -8 45 -72 85 -121 7
-9 19 -27 26 -40 7 -13 35 -51 63 -84 28 -34 75 -92 104 -130 123 -158 450
-506 582 -619 19 -16 76 -66 126 -110 139 -122 337 -276 399 -311 17 -9 46
-30 65 -46 57 -47 60 -49 83 -61 12 -7 36 -22 54 -34 17 -13 34 -23 38 -23 4
0 25 -13 48 -28 91 -62 124 -82 134 -82 6 0 24 -11 40 -24 15 -13 39 -27 53
-31 14 -4 37 -16 51 -26 15 -10 46 -28 70 -39 24 -11 51 -24 59 -29 39 -25
268 -131 282 -131 8 0 26 -9 40 -19 13 -11 44 -24 68 -31 25 -7 56 -20 70 -30
14 -10 41 -21 60 -25 19 -4 53 -15 75 -26 52 -24 174 -66 250 -86 33 -9 83
-24 110 -34 28 -10 66 -21 85 -24 19 -3 71 -17 115 -30 44 -13 100 -27 125
-31 25 -3 61 -12 81 -19 20 -7 90 -20 155 -29 66 -9 146 -23 179 -31 33 -9
141 -22 240 -31 99 -9 232 -20 295 -26 148 -13 492 -13 640 0 63 6 196 17 295
26 99 8 209 22 245 30 36 9 112 22 170 30 58 9 134 24 169 36 35 11 78 20 96
20 31 0 80 12 120 31 11 5 49 15 85 23 80 18 248 69 275 83 11 6 48 18 82 27
35 8 80 24 100 35 21 10 53 22 72 26 19 4 41 14 48 21 8 7 37 20 65 29 28 8
61 21 72 28 12 8 39 20 61 27 22 7 47 19 56 26 8 8 37 20 63 28 26 8 55 21 64
29 10 8 32 19 51 26 18 6 71 33 117 61 46 27 89 50 97 50 8 0 21 7 28 17 8 9
38 27 67 39 28 13 52 27 52 32 0 4 19 18 43 30 52 28 96 54 166 101 29 20 64
43 76 51 13 8 49 33 80 55 31 22 67 47 79 55 31 21 109 82 121 95 6 6 32 27
58 46 27 19 60 44 74 57 15 12 51 44 82 70 279 238 726 723 876 950 13 20 47
69 75 107 28 39 58 83 68 99 9 15 27 42 39 60 13 17 28 43 34 59 6 15 14 27
19 27 4 0 19 24 34 53 14 28 46 84 71 122 24 39 44 76 45 84 0 8 6 22 14 30
22 26 106 192 106 209 -1 25 -29 56 -90 95 -55 36 -92 62 -164 117 -21 17 -43
30 -49 30 -5 0 -23 12 -41 26 -27 23 -98 73 -235 166 -18 13 -41 31 -51 40
-11 9 -33 24 -51 33 -18 10 -43 28 -56 41 -13 13 -27 24 -31 24 -6 0 -122 79
-197 134 -62 46 -93 67 -120 82 -16 9 -35 23 -40 31 -6 8 -20 19 -31 26 -49
28 -130 85 -143 100 -7 10 -19 17 -26 17 -6 0 -20 9 -30 20 -10 11 -24 20 -30
20 -7 0 -24 9 -38 20 -14 11 -30 20 -36 20 -8 0 -11 -72 -11 -235 0 -224 -1
-236 -21 -256 -23 -23 -28 -21 -109 40 -19 14 -47 33 -61 41 -32 18 -108 69
-123 82 -6 5 -23 17 -37 26 -24 16 -111 75 -164 112 -12 8 -37 25 -56 37 -19
12 -47 31 -64 43 -16 11 -57 39 -90 61 -33 21 -80 55 -105 74 -25 19 -56 40
-70 47 -14 6 -34 20 -45 29 -11 10 -33 24 -48 32 -15 8 -45 31 -67 51 l-39 36
15 52 c9 29 22 60 29 68 7 8 18 35 25 60 6 25 20 63 30 85 30 61 70 165 85
218 7 27 20 59 28 71 9 13 21 43 27 67 7 24 18 51 25 59 7 8 20 41 29 73 9 32
26 72 36 90 11 18 20 42 20 53 0 12 9 32 19 46 11 13 27 51 36 83 10 33 25 74
35 90 10 17 21 46 25 65 4 19 15 46 25 60 9 14 22 46 29 72 6 27 20 63 31 80
11 18 20 40 20 48 0 8 14 42 30 75 17 33 30 69 30 80 0 11 9 34 19 51 10 17
22 46 26 65 12 59 16 69 36 80 15 8 27 5 54 -11 19 -12 38 -28 43 -35 4 -8 39
-49 77 -91 225 -247 209 -229 374 -417 30 -34 102 -113 160 -176 58 -63 112
-122 119 -133 7 -10 30 -34 50 -54 20 -19 43 -46 52 -58 15 -23 122 -145 190
-217 57 -60 262 -289 349 -389 21 -25 71 -81 111 -125 174 -192 227 -250 252
-277 15 -16 31 -35 35 -42 9 -15 121 -140 215 -239 64 -67 83 -69 93 -10 3 21
17 70 30 108 13 39 28 93 34 120 6 28 19 86 30 130 43 176 64 284 77 384 8 58
19 131 24 161 71 371 68 1185 -5 1565 -9 44 -20 116 -24 160 -5 44 -18 114
-29 155 -10 41 -22 99 -26 129 -4 30 -15 79 -26 110 -10 31 -21 74 -25 96 -3
22 -15 65 -27 95 -11 30 -28 84 -38 120 -9 36 -22 79 -28 95 -6 17 -18 53 -27
80 -36 110 -65 188 -74 199 -5 6 -17 36 -27 66 -9 30 -25 66 -35 80 -9 14 -20
42 -24 62 -4 21 -13 42 -21 49 -8 6 -14 17 -14 23 0 10 -68 155 -92 196 -4 8
-15 31 -23 50 -9 19 -20 42 -25 50 -5 8 -24 40 -40 70 -77 138 -178 307 -210
350 -10 14 -48 70 -84 125 -37 55 -80 118 -97 140 -16 22 -37 51 -46 65 -20
29 -51 67 -113 141 -25 29 -55 67 -68 86 -12 18 -26 33 -31 33 -4 0 -12 9 -17
19 -25 54 -511 546 -583 591 -5 3 -27 20 -48 37 -21 17 -72 58 -113 92 -41 33
-84 69 -95 80 -12 11 -33 25 -48 32 -15 7 -27 16 -27 20 0 4 -17 18 -37 30
-21 13 -42 28 -48 34 -5 7 -41 31 -79 55 -38 23 -74 47 -80 51 -28 24 -84 60
-113 73 -18 8 -45 26 -60 40 -15 14 -34 26 -41 26 -7 0 -28 11 -46 25 -18 14
-38 25 -44 25 -6 0 -23 11 -39 24 -16 14 -43 28 -59 32 -16 4 -36 12 -44 20
-21 18 -191 104 -205 104 -7 0 -18 7 -25 15 -7 8 -31 20 -53 26 -23 6 -52 19
-65 29 -12 10 -37 22 -55 25 -18 4 -45 15 -62 25 -16 10 -56 26 -87 35 -32 9
-60 20 -63 25 -3 5 -29 16 -58 25 -29 8 -81 26 -117 39 -59 22 -183 62 -270
87 -19 6 -44 14 -55 19 -11 5 -51 16 -90 24 -38 8 -88 20 -110 26 -22 7 -76
18 -120 25 -44 7 -91 18 -105 23 -32 13 -120 29 -235 42 -49 6 -115 15 -145
20 -137 25 -229 30 -575 36 -364 7 -725 -5 -819 -26 -77 -17 -151 -29 -256
-41 -58 -6 -123 -18 -145 -25 -22 -8 -75 -19 -119 -24 -43 -5 -101 -18 -130
-28 -28 -11 -71 -23 -96 -27 -25 -3 -72 -16 -105 -27 -33 -11 -89 -28 -125
-38 -80 -23 -146 -45 -225 -75 -33 -12 -76 -26 -95 -30 -19 -4 -42 -13 -50
-20 -8 -6 -40 -20 -70 -29 -30 -10 -62 -24 -70 -31 -8 -7 -35 -18 -60 -25 -25
-7 -52 -18 -61 -26 -9 -8 -39 -21 -67 -29 -33 -10 -58 -25 -68 -40 -15 -23
-15 -26 2 -48 11 -13 39 -51 64 -83 25 -32 82 -102 127 -155 46 -53 83 -100
83 -104 0 -4 39 -53 88 -110 48 -56 97 -115 109 -131 46 -62 86 -111 129 -160
25 -29 53 -62 62 -75 17 -25 110 -139 142 -175 15 -17 20 -39 22 -107 2 -76 0
-89 -23 -123 -14 -22 -34 -52 -45 -68 -10 -16 -23 -36 -29 -45 -5 -9 -22 -35
-38 -59 -15 -24 -27 -47 -27 -51 0 -5 -13 -25 -30 -46 -16 -21 -30 -42 -30
-47 0 -5 -13 -28 -28 -51 -33 -49 -67 -102 -108 -170 -16 -27 -39 -61 -52 -77
-12 -16 -27 -42 -33 -59 -6 -17 -15 -31 -20 -31 -5 0 -21 -25 -35 -55 -14 -30
-32 -59 -40 -66 -16 -13 -19 -49 -4 -49 5 0 16 13 24 29 17 32 84 75 134 86
43 9 122 -11 163 -41 18 -13 40 -24 49 -24 8 0 32 -11 52 -25 20 -14 45 -25
56 -25 10 0 39 -13 65 -30 26 -16 55 -30 64 -30 9 0 30 -11 47 -23 17 -13 49
-30 71 -37 22 -7 47 -18 55 -25 8 -7 26 -16 40 -20 14 -4 49 -21 79 -36 30
-16 59 -29 66 -29 7 0 18 -7 25 -15 7 -8 31 -20 54 -26 22 -5 54 -19 69 -30
15 -11 46 -27 68 -34 22 -8 52 -24 66 -35 14 -11 35 -20 47 -20 12 0 38 -11
58 -25 20 -14 41 -25 46 -25 6 0 63 -27 129 -59 66 -33 131 -63 146 -66 14 -4
31 -13 37 -20 7 -8 28 -19 48 -26 20 -6 49 -20 64 -30 14 -11 32 -19 38 -19
16 0 180 -78 200 -95 8 -7 34 -18 56 -24 23 -6 47 -18 54 -26 7 -8 18 -15 26
-15 22 0 60 -42 79 -88 18 -42 18 -44 -5 -110 -47 -132 -121 -252 -218 -350
-164 -166 -320 -227 -582 -227 -117 0 -318 28 -362 51 -15 8 -51 19 -80 24
-28 6 -59 17 -68 25 -9 8 -39 22 -66 31 -27 9 -59 25 -71 36 -36 33 -64 20
-95 -42 -15 -30 -35 -64 -44 -75 -9 -11 -25 -38 -35 -60 -11 -22 -35 -67 -53
-100 -19 -33 -42 -76 -51 -95 -10 -19 -28 -48 -41 -63 -46 -55 -22 -96 73
-123 32 -9 69 -25 83 -34 14 -10 44 -23 66 -29 22 -6 49 -20 59 -31 10 -11 26
-20 35 -20 10 0 34 -13 55 -30 21 -16 42 -30 46 -30 8 0 70 -41 158 -105 16
-11 41 -29 57 -39 105 -71 461 -427 514 -514 9 -15 24 -33 33 -41 10 -7 17
-18 17 -24 0 -6 11 -22 24 -36 26 -28 136 -187 136 -197 0 -3 12 -21 26 -40
29 -37 51 -75 83 -140 12 -23 27 -47 35 -53 8 -7 22 -33 30 -58 9 -26 22 -53
30 -62 7 -9 19 -33 25 -53 7 -20 18 -42 26 -48 8 -6 21 -33 30 -60 9 -27 22
-54 30 -60 8 -7 18 -28 21 -48 4 -20 15 -50 26 -67 10 -18 25 -55 33 -82 8
-28 21 -56 29 -62 8 -7 17 -27 20 -46 4 -19 17 -58 30 -87 13 -29 26 -70 30
-91 4 -21 16 -59 27 -85 11 -25 25 -69 31 -97 13 -62 57 -151 68 -139 5 5 13
46 19 91 6 45 19 117 30 160 11 43 23 103 26 133 4 30 17 96 30 145 12 50 26
117 29 150 4 33 13 80 21 105 8 25 21 83 29 130 8 47 24 123 35 170 12 47 21
96 21 110 0 37 29 143 41 151 18 11 86 -7 110 -29 12 -12 27 -22 33 -22 15 0
176 -82 176 -90 0 -4 21 -15 48 -25 26 -10 54 -23 62 -30 8 -6 33 -21 55 -32
22 -11 67 -35 100 -53 33 -18 80 -43 105 -57 25 -13 56 -30 70 -38 14 -7 36
-18 50 -24 14 -6 48 -24 77 -40 37 -20 56 -25 68 -19 16 9 120 116 220 225 59
65 238 256 378 403 55 58 143 151 196 207 182 193 272 283 284 283 36 -1 39
-15 38 -184 -1 -92 -6 -178 -11 -191 -5 -13 -7 -53 -4 -87 5 -50 1 -80 -20
-148 -41 -137 -80 -244 -98 -272 -9 -14 -20 -38 -24 -54 -4 -15 -17 -43 -30
-62 -13 -18 -26 -43 -30 -55 -3 -12 -12 -29 -19 -37 -7 -8 -20 -36 -30 -62
-10 -26 -23 -53 -31 -59 -7 -6 -16 -25 -20 -42 -3 -18 -15 -44 -25 -59 -11
-14 -19 -30 -19 -34 0 -8 -59 -135 -87 -189 -9 -16 -22 -43 -30 -60 -8 -16
-20 -41 -28 -55 -7 -14 -46 -90 -85 -170 -39 -80 -76 -152 -81 -160 -5 -8 -29
-58 -55 -110 -25 -52 -50 -102 -55 -110 -5 -8 -16 -31 -25 -50 -16 -34 -26
-53 -58 -115 -26 -50 -66 -143 -66 -153 0 -5 -10 -25 -23 -44 -13 -18 -29 -49
-35 -66 -6 -18 -20 -46 -32 -61 -11 -16 -20 -36 -20 -44 0 -8 -10 -27 -22 -43
l-23 -29 -2 -1045 -3 -1045 -21 -18 c-21 -17 -101 -18 -1686 -15 -1466 3
-1665 5 -1673 18 -15 24 -12 100 10 212 10 57 24 150 30 208 6 58 18 134 26
170 8 36 21 126 29 201 7 75 17 145 23 155 13 24 32 151 32 210 0 25 4 64 9
87 16 72 29 149 40 232 26 202 34 253 46 290 7 22 16 85 19 140 4 54 14 124
21 155 8 30 23 126 34 213 22 179 23 177 -49 271 -25 32 -54 73 -65 91 -11 18
-38 59 -60 91 -22 31 -46 68 -53 81 -8 13 -20 27 -28 30 -8 3 -14 10 -14 17 0
11 -69 118 -97 149 -9 9 -21 26 -27 36 -6 10 -29 45 -51 76 -22 32 -44 65 -50
74 -5 9 -21 30 -35 47 -14 17 -34 46 -45 65 -23 39 -33 54 -97 143 -27 37 -48
70 -48 75 0 4 -11 18 -25 31 -14 13 -25 28 -25 34 0 6 -14 27 -30 46 -16 19
-30 40 -30 46 0 6 -7 17 -15 24 -14 11 -62 80 -154 219 -13 20 -27 38 -31 41
-4 3 -15 21 -25 40 -10 19 -21 37 -24 40 -12 9 -66 85 -108 150 -23 36 -62 92
-86 125 -24 33 -74 105 -111 160 -38 55 -77 109 -87 121 -10 11 -19 25 -19 31
0 6 -15 30 -34 52 -19 23 -38 50 -41 61 -4 11 -10 20 -14 20 -4 0 -13 11 -19
24 -6 13 -32 52 -59 87 -26 35 -54 75 -63 90 -18 31 -56 86 -105 149 -19 25
-40 56 -47 70 -7 14 -23 42 -35 62 -14 22 -23 54 -23 76 0 22 -5 53 -11 70
-12 35 3 106 29 135 17 19 47 66 82 131 12 21 43 69 68 105 26 36 52 73 57 82
33 54 110 167 125 184 10 11 21 31 25 45 4 14 21 40 36 58 16 18 29 39 29 46
0 7 11 23 25 36 14 13 25 29 25 35 0 7 12 28 27 48 16 20 55 79 88 132 33 54
68 104 78 113 9 9 17 21 17 26 0 5 12 25 27 45 16 20 36 52 45 71 10 19 26 46
37 60 29 38 153 226 179 273 13 23 27 44 31 47 15 11 71 108 71 123 0 19 -15
23 -25 7 -12 -19 -50 -9 -86 23 -20 17 -51 45 -70 60 -19 15 -54 46 -79 68
-25 22 -70 61 -101 87 -81 68 -140 117 -174 147 -16 15 -130 112 -253 217
-123 104 -241 207 -262 227 -21 20 -66 59 -100 86 -33 28 -86 74 -118 102 -58
53 -81 63 -100 41 -5 -7 -18 -71 -27 -143 -50 -383 -62 -405 -175 -298 -34 32
-69 62 -78 67 -9 5 -32 25 -51 45 -20 20 -46 43 -57 51 -12 8 -68 58 -125 111
-57 53 -160 145 -229 205 -69 59 -177 154 -240 211 -168 153 -310 277 -360
316 -8 6 -67 59 -130 117 -63 58 -144 130 -180 160 -36 30 -85 73 -110 96
-204 185 -256 232 -285 255 -18 14 -47 38 -63 55 -16 16 -62 56 -102 89 -41
33 -90 76 -110 95 -45 42 -291 262 -305 272 -5 4 -82 72 -170 151 -160 143
-197 172 -209 160z m5794 -1603 c58 -9 211 -60 232 -78 7 -5 30 -17 50 -25 45
-19 199 -120 223 -147 10 -11 24 -20 31 -20 7 0 60 -46 118 -102 117 -114 124
-129 83 -189 -12 -19 -28 -45 -35 -59 -7 -14 -28 -50 -47 -80 -19 -30 -42 -71
-50 -90 -9 -19 -20 -42 -25 -50 -6 -8 -17 -28 -24 -45 -8 -16 -23 -41 -34 -55
-10 -14 -29 -45 -41 -70 -29 -60 -61 -117 -89 -160 -12 -19 -22 -43 -22 -52 0
-10 -5 -18 -11 -18 -5 0 -21 -24 -33 -53 -13 -29 -31 -59 -40 -66 -9 -7 -16
-21 -16 -30 0 -9 -13 -35 -29 -57 -16 -21 -30 -48 -32 -59 -2 -10 -15 -26 -29
-33 -23 -13 -31 -12 -100 22 -41 20 -82 41 -90 46 -8 5 -31 16 -50 25 -19 8
-46 22 -60 30 -14 8 -56 28 -95 45 -88 40 -292 138 -325 157 -14 8 -41 21 -60
29 -19 8 -57 25 -85 38 -27 13 -62 29 -77 35 -20 8 -28 18 -28 36 0 28 47 131
79 171 12 15 21 32 21 40 0 7 11 26 25 42 14 17 25 36 25 43 0 8 10 30 22 49
37 58 56 93 79 140 12 25 30 53 40 63 11 10 19 26 19 35 0 10 16 42 35 72 19
30 35 59 35 66 0 6 9 22 19 36 11 13 38 60 61 103 23 44 50 91 60 105 9 14 21
36 25 50 9 31 33 59 60 71 20 9 75 5 185 -11z m1205 -575 c39 -9 90 -20 115
-25 25 -5 63 -18 85 -28 22 -11 59 -25 81 -31 23 -6 47 -18 55 -27 7 -8 28
-22 48 -30 19 -8 38 -18 41 -22 3 -5 26 -20 51 -34 88 -52 226 -177 354 -324
66 -76 82 -114 66 -156 -9 -24 -62 -101 -94 -138 -14 -15 -43 -57 -113 -164
-21 -33 -49 -71 -61 -84 -13 -14 -23 -30 -23 -37 0 -7 -7 -19 -16 -26 -16 -13
-49 -59 -89 -124 -11 -18 -38 -56 -61 -86 -22 -30 -47 -66 -55 -80 -14 -26
-84 -124 -131 -184 -13 -16 -28 -39 -34 -51 -6 -11 -34 -50 -61 -86 -28 -35
-53 -73 -57 -84 -3 -10 -22 -37 -41 -59 -19 -22 -42 -55 -51 -73 -20 -42 -101
-125 -114 -117 -14 9 -12 47 4 71 8 11 21 76 30 146 17 128 12 247 -15 351
-13 50 -71 113 -117 128 -20 6 -44 18 -52 25 -9 7 -36 22 -62 34 -25 11 -51
27 -58 35 -7 8 -20 15 -30 15 -9 0 -34 11 -54 25 -20 14 -40 25 -43 25 -4 0
-48 20 -98 44 -136 67 -172 110 -126 153 10 10 29 37 42 61 13 24 36 65 51 90
16 26 37 66 48 89 11 23 25 45 30 48 8 5 42 63 97 165 13 25 37 65 53 90 16
25 41 65 55 90 34 61 45 78 77 127 15 23 28 48 28 57 0 8 14 31 30 49 17 19
30 38 30 43 0 8 44 77 69 107 17 21 27 21 116 2z m1102 -888 c16 -8 48 -20 73
-27 25 -7 52 -18 60 -25 8 -7 32 -18 53 -25 20 -6 43 -17 50 -24 7 -7 25 -19
39 -27 51 -27 224 -184 292 -267 80 -95 185 -251 223 -328 26 -53 26 -53 7
-83 -11 -16 -48 -61 -84 -99 -36 -39 -85 -93 -110 -122 -25 -29 -56 -64 -70
-79 -14 -14 -55 -60 -90 -101 -35 -41 -85 -97 -111 -125 -155 -166 -279 -304
-279 -311 0 -4 -26 -35 -57 -68 -121 -130 -201 -216 -263 -286 -36 -41 -87
-98 -115 -128 -27 -29 -54 -61 -59 -69 -12 -22 -68 -71 -88 -78 -9 -3 -32 2
-50 11 -42 22 -198 153 -319 268 -53 50 -151 142 -217 205 -72 68 -122 123
-122 134 0 18 17 57 29 67 15 12 131 171 131 179 0 5 7 15 16 22 9 8 28 32 42
54 14 22 33 46 44 53 10 7 18 19 18 26 0 7 9 24 20 37 11 13 44 56 72 94 29
39 55 72 60 73 4 2 8 10 8 17 0 8 6 20 13 27 33 36 95 116 106 136 7 13 19 31
27 40 8 9 36 46 62 82 26 36 50 70 54 75 4 6 21 26 38 46 16 20 30 41 30 46 0
5 25 39 55 76 30 36 55 70 55 75 0 5 26 43 58 83 31 41 72 97 91 124 19 28 56
75 82 106 46 54 48 58 36 88 -10 27 -9 33 3 41 18 11 50 6 87 -13z m948 -1083
c17 -9 50 -28 75 -41 60 -32 102 -63 162 -120 51 -49 138 -157 138 -171 0 -5
9 -18 19 -29 11 -12 30 -42 42 -67 11 -25 24 -46 28 -46 4 0 15 -24 24 -54 10
-30 24 -59 32 -66 9 -7 15 -29 15 -54 0 -44 -7 -52 -89 -117 -24 -18 -54 -43
-66 -54 -11 -11 -55 -50 -96 -86 -40 -37 -120 -109 -177 -160 -57 -52 -113
-101 -125 -109 -22 -15 -47 -37 -182 -159 -151 -136 -288 -258 -375 -331 -29
-25 -81 -71 -114 -103 -34 -32 -71 -60 -84 -64 -43 -11 -101 4 -136 35 -19 16
-38 31 -43 33 -14 7 -165 172 -189 209 -13 19 -37 53 -53 75 -17 22 -42 61
-56 87 l-25 47 37 48 c20 26 54 69 77 94 23 25 61 69 86 98 25 29 55 64 67 77
12 13 28 33 36 44 8 12 37 45 63 75 27 29 74 81 104 116 30 35 67 76 83 92 15
17 27 34 27 38 0 4 10 19 23 31 12 13 57 64 101 113 43 50 95 108 115 131 20
23 52 60 71 83 19 23 50 59 68 79 18 20 46 56 63 80 16 23 34 42 39 42 5 0 30
27 56 60 44 56 50 60 88 60 23 0 55 -7 71 -16z"/>
<path d="M5180 9194 c-12 -30 -8 -39 15 -31 17 7 21 42 5 52 -6 3 -15 -6 -20
-21z"/>
<path d="M5127 9113 c-4 -3 -7 -15 -7 -25 0 -26 24 -17 28 10 3 21 -8 29 -21
15z"/>
<path d="M12618 3749 c-37 -21 -16 -50 84 -117 31 -20 83 -58 117 -84 34 -27
65 -48 70 -48 4 0 24 -12 44 -27 77 -60 173 -129 193 -139 12 -6 48 -31 80
-55 32 -24 73 -53 90 -64 70 -45 110 -73 123 -89 7 -9 19 -16 26 -16 8 0 26
-11 42 -23 15 -13 53 -41 84 -63 31 -21 86 -60 123 -86 37 -27 71 -48 75 -48
5 0 14 -7 21 -15 7 -9 45 -37 84 -62 39 -26 76 -52 81 -58 6 -6 24 -20 41 -30
65 -42 202 -137 279 -195 44 -32 93 -67 108 -75 35 -20 144 -103 152 -116 4
-5 17 -9 31 -9 30 0 32 25 3 41 -12 6 -35 27 -53 47 -40 48 -119 122 -129 122
-4 0 -36 21 -70 48 -61 46 -132 96 -167 117 -10 5 -44 30 -76 55 -33 24 -88
64 -124 89 -36 24 -98 67 -138 95 -41 28 -93 65 -117 81 -71 49 -210 147 -282
198 -38 26 -99 69 -138 95 -38 25 -76 52 -82 58 -7 7 -29 22 -50 35 -20 13
-44 30 -53 37 -19 17 -211 150 -254 176 -17 10 -46 31 -64 47 -18 16 -36 29
-41 29 -5 0 -25 14 -46 30 -42 33 -43 34 -67 19z"/>
</g>
</svg>
